<?xml version="1.0" encoding="UTF-8" standalone="no"?>
<svg
   version="1.1"
   width="512px"
   height="512px"
   style="shape-rendering:geometricPrecision; text-rendering:geometricPrecision; image-rendering:optimizeQuality; fill-rule:evenodd; clip-rule:evenodd"
   id="svg1538"
   sodipodi:docname="XLC (with txt).svg"
   inkscape:version="1.2.2 (b0a84865, 2022-12-01)"
   inkscape:export-filename="XLC logo.png"
   inkscape:export-xdpi="96"
   inkscape:export-ydpi="96"
   xmlns:inkscape="http://www.inkscape.org/namespaces/inkscape"
   xmlns:sodipodi="http://sodipodi.sourceforge.net/DTD/sodipodi-0.dtd"
   xmlns="http://www.w3.org/2000/svg"
   xmlns:svg="http://www.w3.org/2000/svg">
  <defs
     id="defs1542">
    <linearGradient
       id="linearGradient13405"
       inkscape:swatch="solid">
      <stop
         style="stop-color:#000000;stop-opacity:1;"
         offset="0"
         id="stop13403" />
    </linearGradient>
    <rect
       x="61"
       y="68"
       width="97"
       height="87"
       id="rect13025" />
    <linearGradient
       id="linearGradient4335"
       inkscape:swatch="solid">
      <stop
         style="stop-color:#000000;stop-opacity:1;"
         offset="0"
         id="stop4333" />
    </linearGradient>
    <linearGradient
       id="linearGradient4327"
       inkscape:swatch="gradient">
      <stop
         style="stop-color:#000000;stop-opacity:1;"
         offset="0"
         id="stop4323" />
      <stop
         style="stop-color:#000000;stop-opacity:0;"
         offset="1"
         id="stop4325" />
    </linearGradient>
  </defs>
  <sodipodi:namedview
     id="namedview1540"
     pagecolor="#ffffff"
     bordercolor="#000000"
     borderopacity="0.25"
     inkscape:showpageshadow="2"
     inkscape:pageopacity="0.0"
     inkscape:pagecheckerboard="0"
     inkscape:deskcolor="#d1d1d1"
     showgrid="false"
     inkscape:zoom="1"
     inkscape:cx="-243"
     inkscape:cy="145"
     inkscape:window-width="1799"
     inkscape:window-height="2002"
     inkscape:window-x="15"
     inkscape:window-y="40"
     inkscape:window-maximized="0"
     inkscape:current-layer="svg1538" />
  <ellipse
     style="fill:none;fill-opacity:1;stroke:#000000;stroke-width:5.429;stroke-dasharray:none;stroke-opacity:1;paint-order:stroke fill markers"
     id="path5791"
     cx="-8.4413347"
     cy="413.71573"
     rx="117.6497"
     ry="112.09542"
     transform="rotate(-51.728364)" />
  <ellipse
     style="fill:none;fill-opacity:1;stroke:#ab5a09;stroke-width:0;stroke-dasharray:none;stroke-opacity:1;paint-order:stroke fill markers"
     id="ellipse13401"
     cx="-7.1228266"
     cy="413.46368"
     rx="104.86542"
     ry="99.777885"
     transform="matrix(0.61714152,-0.78685218,0.78330519,0.62163734,0,0)" />
  <g
     id="g1468"
     transform="rotate(-51.728364,178.98044,327.62098)"
     style="fill:#000000;fill-opacity:1">
    <path
       style="opacity:1;fill:#000000;fill-opacity:1"
       fill="#1c2325"
       d="m 175.5,214.5 c -2.107,0.968 -4.441,1.302 -7,1 0,1 0,2 0,3 -3.098,-0.087 -3.432,0.413 -1,1.5 -2.068,0.687 -4.068,0.52 -6,-0.5 -0.682,0.743 -1.349,1.409 -2,2 -0.235,-0.597 -0.735,-0.93 -1.5,-1 -5.755,2.123 -10.922,5.123 -15.5,9 -1.805,0.737 -3.471,1.737 -5,3 -1.254,-1.759 -0.921,-3.259 1,-4.5 5.156,-4.414 10.823,-8.081 17,-11 6.585,-1.49 13.252,-2.323 20,-2.5 z"
       id="path1466" />
  </g>
  <g
     id="g1476"
     transform="rotate(-51.728364,178.98044,327.62098)">
    <path
       style="opacity:1"
       fill="#0b090a"
       d="m 370.5,323.5 c 1.164,6.151 1.164,12.151 0,18 -1.326,-3.989 -2.659,-7.989 -4,-12 -4.33,0.465 -8.663,-0.035 -13,-1.5 -6.855,-7.545 -12.855,-15.711 -18,-24.5 -2.247,0.874 -4.58,1.208 -7,1 1.761,7.91 2.261,15.91 1.5,24 -2.425,7.254 -4.759,14.588 -7,22 -0.77,4.341 -0.27,8.508 1.5,12.5 -1.496,0.507 -2.663,0.007 -3.5,-1.5 -0.687,-7.794 -0.52,-15.294 0.5,-22.5 -1.328,-8.065 -2.161,-16.231 -2.5,-24.5 -0.667,1.333 -1.333,1.333 -2,0 -1.697,-2.199 -3.197,-4.532 -4.5,-7 -8.4,-3.367 -16.4,-7.534 -24,-12.5 -21.659,2.596 -39.159,-4.904 -52.5,-22.5 -2.226,5.242 -4.892,10.242 -8,15 0.058,12.628 -0.275,25.294 -1,38 -2.75,3.836 -5.583,7.503 -8.5,11 -1.983,0.343 -3.317,-0.324 -4,-2 1.644,-2.504 3.144,-5.171 4.5,-8 0.078,-6.997 -0.256,-13.997 -1,-21 -2.528,-5.988 -3.861,-12.322 -4,-19 -0.414,-0.457 -0.914,-0.791 -1.5,-1 -3.329,2.796 -6.329,5.963 -9,9.5 -2.388,0.303 -4.555,1.137 -6.5,2.5 -3.184,5.03 -6.851,9.696 -11,14 -1.892,9.389 -7.392,15.389 -16.5,18 0.166,5.676 -0.001,11.343 -0.5,17 -3.531,3.445 -6.864,7.111 -10,11 -0.098,-4.147 1.235,-7.813 4,-11 0.333,-6.667 0.667,-13.333 1,-20 4.954,-10.385 9.621,-21.052 14,-32 4.774,-9.274 12.274,-14.941 22.5,-17 -2.126,-4.211 -3.959,-8.544 -5.5,-13 -4.352,-3.355 -8.352,-7.021 -12,-11 -4.079,1.129 -8.245,1.296 -12.5,0.5 -2.511,-1.848 -5.011,-3.681 -7.5,-5.5 -8.224,2.708 -15.224,0.708 -21,-6 -2.394,-4.973 -1.56,-9.306 2.5,-13 4.535,-3.534 9.535,-6.2 15,-8 0.651,-0.591 1.318,-1.257 2,-2 1.932,1.02 3.932,1.187 6,0.5 -2.432,-1.087 -2.098,-1.587 1,-1.5 0,-1 0,-2 0,-3 2.559,0.302 4.893,-0.032 7,-1 1,0 2,0 3,0 2.533,-8.709 7.867,-15.209 16,-19.5 15.46,-6.5 31.46,-8.167 48,-5 4.293,3.38 8.626,3.713 13,1 36.889,-2.372 68.056,9.794 93.5,36.5 5.019,6.036 9.019,12.703 12,20 1.221,6.036 0.054,11.536 -3.5,16.5 2.289,5.461 2.456,10.961 0.5,16.5 -6.08,4.29 -12.247,8.457 -18.5,12.5 2.462,1.216 5.129,1.882 8,2 5.637,7.443 10.637,15.276 15,23.5 2.047,1.515 4.381,2.349 7,2.5 0.752,0.671 1.086,1.504 1,2.5 z"
       id="path1474" />
  </g>
  <g
     id="g1480"
     transform="rotate(-51.728364,178.98044,327.62098)">
    <path
       style="opacity:1"
       fill="#26180f"
       d="m 301.5,267.5 c 9.013,1.317 18.013,2.817 27,4.5 8.049,0.802 16.049,0.635 24,-0.5 2.142,0.937 2.476,2.27 1,4 -4.225,-2.267 -8.725,-2.6 -13.5,-1 -13.29,-0.574 -26.123,-2.907 -38.5,-7 z"
       id="path1478" />
  </g>
  <g
     id="g1484"
     transform="rotate(-51.728364,178.98044,327.62098)"
     style="fill:#b86009;fill-opacity:1">
    <path
       style="opacity:1;fill:#b86009;fill-opacity:1"
       fill="#fefdfd"
       d="m 255.5,259.5 c 9.812,6.955 20.478,8.788 32,5.5 0.498,-1.158 1.331,-1.991 2.5,-2.5 3.279,2.888 7.112,4.555 11.5,5 12.377,4.093 25.21,6.426 38.5,7 4.775,-1.6 9.275,-1.267 13.5,1 -2.35,4.092 -6.017,6.258 -11,6.5 -16.442,2.506 -32.442,0.84 -48,-5 -2.46,-1.458 -4.627,-3.291 -6.5,-5.5 -3.67,3.251 -7.837,5.584 -12.5,7 -10.694,-4.349 -21.36,-8.683 -32,-13 -2.863,-1.295 -5.53,-2.962 -8,-5 3.307,-2.14 6.474,-4.474 9.5,-7 3.056,2.845 6.556,4.845 10.5,6 z"
       id="path1482" />
  </g>
  <g
     id="g1488"
     transform="rotate(-51.728364,178.98044,327.62098)">
    <path
       style="opacity:1"
       fill="#261208"
       d="m 258.5,246.5 c 1.531,-1.425 1.198,-2.091 -1,-2 8.335,-2.799 17.001,-3.633 26,-2.5 22.676,4.469 45.343,8.802 68,13 -3.133,1.57 -6.467,1.903 -10,1 -18.745,-3.282 -37.412,-6.949 -56,-11 -9.109,-0.928 -18.109,-0.428 -27,1.5 z"
       id="path1486" />
  </g>
  <g
     id="g1492"
     transform="rotate(-51.728364,178.98044,327.62098)">
    <path
       style="opacity:1"
       fill="#1b0d08"
       d="m 225.5,194.5 c -0.946,2.39 -2.279,4.556 -4,6.5 -8.568,3.354 -15.735,8.521 -21.5,15.5 -5.746,12.286 -3.246,22.453 7.5,30.5 13.688,3.605 24.688,-0.228 33,-11.5 1.059,3.786 2.892,7.119 5.5,10 -0.516,5.841 1.984,9.341 7.5,10.5 0.805,1.113 1.472,2.279 2,3.5 -3.944,-1.155 -7.444,-3.155 -10.5,-6 -3.026,2.526 -6.193,4.86 -9.5,7 2.47,2.038 5.137,3.705 8,5 -2.104,0.299 -4.104,-0.034 -6,-1 -2.223,-2.223 -4.889,-3.556 -8,-4 -6.161,1.166 -12.161,1.166 -18,0 9.407,0.861 17.573,-1.806 24.5,-8 0.772,0.145 1.439,0.478 2,1 2.257,-1.546 4.424,-3.212 6.5,-5 -0.583,-1.502 -1.416,-2.835 -2.5,-4 -12.777,10.243 -26.61,12.076 -41.5,5.5 -13.164,-14.581 -13.164,-29.248 0,-44 4.555,-3.445 9.555,-6.112 15,-8 1.323,-0.816 1.989,-1.983 2,-3.5 2.946,-0.789 5.612,-0.789 8,0 z"
       id="path1490" />
  </g>
  <g
     id="g1496"
     transform="rotate(-51.728364,178.98044,327.62098)"
     style="fill:#3a1e03;fill-opacity:1">
    <path
       style="opacity:1;fill:#3a1e03;fill-opacity:1"
       fill="#868584"
       d="m 151.5,239.5 c -1.105,1.653 -1.271,3.32 -0.5,5 -1.425,-0.712 -2.925,-0.879 -4.5,-0.5 0.556,-0.383 0.889,-0.883 1,-1.5 1.53,-0.711 2.863,-1.711 4,-3 z"
       id="path1494" />
  </g>
  <g
     id="g1500"
     transform="rotate(-51.728364,178.98044,327.62098)"
     style="fill:#824307;fill-opacity:1">
    <path
       style="opacity:1;fill:#824307;fill-opacity:1"
       fill="#523523"
       d="m 179.5,232.5 c -0.709,0.904 -1.709,1.237 -3,1 0.157,1.373 -0.01,2.707 -0.5,4 -2.112,0.723 -4.112,1.723 -6,3 -1.169,-0.509 -2.002,-1.342 -2.5,-2.5 0.881,-0.708 1.547,-1.542 2,-2.5 6.058,-2.521 7.725,-7.021 5,-13.5 0.318,-2.375 1.651,-3.542 4,-3.5 0.729,4.63 1.063,9.297 1,14 z"
       id="path1498" />
  </g>
  <g
     id="g1504"
     transform="rotate(-51.728364,178.98044,327.62098)"
     style="fill:#aad4fb;fill-opacity:1">
    <path
       style="opacity:1;fill:#aad4fb;fill-opacity:1"
       fill="#f3f2f2"
       d="m 151.5,239.5 c -1.137,1.289 -2.47,2.289 -4,3 -3.277,-1.677 -3.777,-4.01 -1.5,-7 3.233,-4.414 7.4,-7.414 12.5,-9 0.182,2.091 -0.152,4.091 -1,6 -2.023,2.353 -4.023,4.686 -6,7 z"
       id="path1502" />
  </g>
  <g
     id="g1508"
     transform="rotate(-51.728364,178.98044,327.62098)"
     style="fill:#f38315;fill-opacity:1">
    <path
       style="opacity:1;fill:#f38315;fill-opacity:1"
       fill="#f5f5f5"
       d="m 171.5,223.5 c 1.685,0.684 2.685,2.017 3,4 -1.603,2.454 -3.603,4.454 -6,6 -1.148,1.395 -2.148,1.228 -3,-0.5 1.162,-2.816 2.329,-5.65 3.5,-8.5 0.671,-0.752 1.504,-1.086 2.5,-1 z"
       id="path1506" />
  </g>
  <g
     id="g1512"
     transform="rotate(-51.728364,178.98044,327.62098)">
    <path
       style="opacity:1"
       fill="#1b0e08"
       d="m 213.5,194.5 c -9.696,2.432 -18.196,7.099 -25.5,14 -1.608,2.882 -2.941,5.882 -4,9 2.639,9.744 4.305,19.744 5,30 0.873,4.025 3.039,7.025 6.5,9 -0.996,-0.086 -1.829,0.248 -2.5,1 -0.71,-1.473 -1.876,-2.14 -3.5,-2 0.216,-2.181 -0.617,-3.847 -2.5,-5 -0.333,-4.333 -0.667,-8.667 -1,-13 -0.707,-1.581 -1.54,-3.081 -2.5,-4.5 1.426,-2.711 1.092,-5.211 -1,-7.5 -0.586,0.209 -1.086,0.543 -1.5,1 -0.191,2.208 -0.691,4.208 -1.5,6 0.063,-4.703 -0.271,-9.37 -1,-14 -2.349,-0.042 -3.682,1.125 -4,3.5 2.725,6.479 1.058,10.979 -5,13.5 -0.333,-0.667 -0.667,-1.333 -1,-2 2.397,-1.546 4.397,-3.546 6,-6 -0.315,-1.983 -1.315,-3.316 -3,-4 0,-1.667 0,-3.333 0,-5 2.893,-1.023 5.726,-1.023 8.5,0 3.326,-4.645 6.16,-9.645 8.5,-15 1.545,-0.952 3.212,-1.285 5,-1 0.14,-1.624 -0.527,-2.79 -2,-3.5 4.068,0.293 7.402,-1.041 10,-4 3.914,0.257 7.914,0.091 12,-0.5 z"
       id="path1510" />
  </g>
  <g
     id="g1516"
     transform="rotate(-51.728364,178.98044,327.62098)">
    <path
       style="opacity:1"
       fill="#675d4a"
       d="m 251.5,199.5 c 1.312,2.243 1.978,4.91 2,8 -0.045,4.389 -0.545,8.723 -1.5,13 -0.5,-6.992 -0.666,-13.992 -0.5,-21 z"
       id="path1514" />
  </g>
  <g
     id="g1520"
     transform="rotate(-51.728364,178.98044,327.62098)"
     style="fill:#f38315;fill-opacity:1">
    <path
       style="opacity:1;fill:#f38315;fill-opacity:1"
       fill="#fefefe"
       d="m 258.5,246.5 c 8.891,-1.928 17.891,-2.428 27,-1.5 18.588,4.051 37.255,7.718 56,11 3.533,0.903 6.867,0.57 10,-1 -22.657,-4.198 -45.324,-8.531 -68,-13 -8.999,-1.133 -17.665,-0.299 -26,2.5 -1.617,0.538 -3.284,0.871 -5,1 2.957,-11.289 4.957,-22.789 6,-34.5 -0.528,-4.866 -1.195,-9.699 -2,-14.5 33.777,-1.908 62.61,9.092 86.5,33 6.042,6.75 10.542,14.417 13.5,23 -1.41,2.996 -3.41,5.496 -6,7.5 -6,0.667 -12,0.667 -18,0 -23.113,-4.731 -46.446,-7.398 -70,-8 -2.496,-1.08 -4.83,-2.414 -7,-4 1.027,-0.513 2.027,-1.013 3,-1.5 z"
       id="path1518" />
  </g>
  <g
     id="g1524"
     transform="rotate(-51.728364,178.98044,327.62098)"
     style="fill:#cb690a;fill-opacity:1">
    <path
       style="opacity:1;fill:#cb690a;fill-opacity:1"
       fill="#fdfbfa"
       d="m 213.5,194.5 c 1.333,0 2.667,0 4,0 -0.011,1.517 -0.677,2.684 -2,3.5 -5.445,1.888 -10.445,4.555 -15,8 -13.164,14.752 -13.164,29.419 0,44 14.89,6.576 28.723,4.743 41.5,-5.5 1.084,1.165 1.917,2.498 2.5,4 -2.076,1.788 -4.243,3.454 -6.5,5 -0.561,-0.522 -1.228,-0.855 -2,-1 -6.927,6.194 -15.093,8.861 -24.5,8 -5.506,-0.71 -10.84,-2.043 -16,-4 -3.461,-1.975 -5.627,-4.975 -6.5,-9 -0.695,-10.256 -2.361,-20.256 -5,-30 1.059,-3.118 2.392,-6.118 4,-9 7.304,-6.901 15.804,-11.568 25.5,-14 z"
       id="path1522" />
  </g>
  <g
     id="g1528"
     transform="rotate(-51.728364,178.98044,327.62098)"
     style="fill:#f38315;fill-opacity:1">
    <path
       style="opacity:1;fill:#f38315;fill-opacity:1"
       fill="#fefefe"
       d="m 225.5,194.5 c 4.014,-0.166 8.014,0.001 12,0.5 2.958,0.229 5.458,1.396 7.5,3.5 1.516,12.725 0.016,25.058 -4.5,37 -8.312,11.272 -19.312,15.105 -33,11.5 -10.746,-8.047 -13.246,-18.214 -7.5,-30.5 5.765,-6.979 12.932,-12.146 21.5,-15.5 1.721,-1.944 3.054,-4.11 4,-6.5 z"
       id="path1526" />
  </g>
  <g
     id="g1532"
     transform="rotate(-51.728364,178.98044,327.62098)">
    <path
       style="opacity:1"
       fill="#423c3b"
       d="m 214.5,334.5 c 0.683,1.676 2.017,2.343 4,2 -3.065,2.857 -6.732,4.023 -11,3.5 2.496,-1.666 4.829,-3.5 7,-5.5 z"
       id="path1530" />
  </g>
  <g
     id="g1536"
     transform="rotate(-51.728364,178.98044,327.62098)">
    <path
       style="opacity:1"
       fill="#485856"
       d="m 370.5,323.5 c 5,9.441 6.166,19.441 3.5,30 -1.072,-4.047 -2.239,-8.047 -3.5,-12 1.164,-5.849 1.164,-11.849 0,-18 z"
       id="path1534" />
  </g>
  <text
     xml:space="preserve"
     id="text13023"
     style="fill:#000000;stroke:#000000;stroke-opacity:1;stroke-width:5.429;stroke-dasharray:none;paint-order:stroke fill markers;fill-opacity:1;white-space:pre;shape-inside:url(#rect13025)" />
  <text
     xml:space="preserve"
     style="font-style:normal;font-variant:normal;font-weight:normal;font-stretch:normal;font-size:86.6572px;font-family:'Noto Sans Bamum';-inkscape-font-specification:'Noto Sans Bamum, Normal';font-variant-ligatures:normal;font-variant-caps:normal;font-variant-numeric:normal;font-variant-east-asian:normal;fill:#000000;fill-opacity:1;stroke:#000000;stroke-width:3.26668;stroke-dasharray:none;stroke-opacity:1;paint-order:stroke fill markers"
     x="218.56207"
     y="307.21628"
     id="text13397"
     transform="scale(1.0418234,0.95985557)"><tspan
       id="tspan13395"
       x="218.56207"
       y="307.21628"
       sodipodi:role="line"
       style="stroke-width:3.26668">XLC</tspan></text>
</svg>
